# xmcd CD database file
#
# Track frame offsets:
#	150
#	12759
#	24497
#	47320
#	81305
#
# Disc length: 1293 seconds
#
# Revision: 0
# Processed by: cddbd v1.5.2PL0 Copyright (c) Steve Scherf et al.
# Submitted via: CDex 1.51
#
DISCID=2b050b05
DTITLE=Cat Power - Jukebox - cd2
DYEAR=2008
DGENRE=Blues
TTITLE0=I feel
TTITLE1=Naked, if I want to
TTITLE2=Breathless
TTITLE3=Angelitos negros
TTITLE4=She's got you
EXTD=YEAR: 2008
EXTT0=
EXTT1=
EXTT2=
EXTT3=
EXTT4=
PLAYORDER=
